# xmcd CD database file
#
# Track frame offsets:
#	150
#	14184
#	30153
#	40404
#	58955
#	72988
#	88365
#	102091
#	119515
#	130884
#	147982
#	162171
#	175507
#	191309
#	211365
#	222840
#	236608
#	249922
#	264809
#	280439
#
# Disc length: 3886 seconds
#
# Revision: 0
# Processed by: cddbd v1.5.1PL0 Copyright (c) Steve Scherf et al.
# Submitted via: Feurio! 1.67 - http://www.feurio.com
#
DISCID=250f2c14
DTITLE=Various Artist - Na ceste
DYEAR=2004
DGENRE=Country
TTITLE0=Wabi Danek - Na ceste
TTITLE1=Michal Tucny - Mam paru
TTITLE2=Frantisek Nedved - Dum na konci namesti
TTITLE3=Robert Krestan - Tancim
TTITLE4=Honza Nedved - Brana
TTITLE5=Roman Horky - Stara laska
TTITLE6=Helena Marsalkova a Marcela Voborska and Rangers - Colorado
TTITLE7=Zalaman a Spol. - Vsechny cesty zacinaji k ranu
TTITLE8=Faxmani - Pan dalnice
TTITLE9=Jakub Smolik - Neodchazej
TTITLE10=Wabi Danek - Kriz z plastiku
TTITLE11=Frantisek Nedved - Prazdny dum
TTITLE12=Karel Cernoch - Rano plny pohody
TTITLE13=Ladislav Vodicka - Teddy Bear
TTITLE14=Brontosauri - Satran
TTITLE15=Honza Vycital a Petr Kocman - Brzdi radsi o chlup driv
TTITLE16=Petr Spaleny a Schovanky - Ja se neztratim
TTITLE17=Robert Krestan - Driv nez se rozloucime
TTITLE18=Zalaman a Spol.  - Dalnice c.5
TTITLE19=Pavel Bobek - Kral silnic
EXTD=
EXTT0=
EXTT1=
EXTT2=
EXTT3=
EXTT4=
EXTT5=
EXTT6=
EXTT7=
EXTT8=
EXTT9=
EXTT10=
EXTT11=
EXTT12=
EXTT13=
EXTT14=
EXTT15=
EXTT16=
EXTT17=
EXTT18=
EXTT19=
PLAYORDER=
